<mxfile host="app.diagrams.net" modified="2021-02-13T21:43:00.798Z" agent="5.0 (Windows)" etag="KfcuIh4Nb5x_KNaGy_vy" version="14.3.0" type="github">
  <diagram id="rsj_hbqOLRDjFZAsgP5L" name="Page-1">
    <mxGraphModel dx="822" dy="570" grid="1" gridSize="10" guides="1" tooltips="1" connect="1" arrows="1" fold="1" page="1" pageScale="1" pageWidth="3300" pageHeight="4681" math="0" shadow="0">
      <root>
        <mxCell id="0" />
        <mxCell id="1" parent="0" />
        <mxCell id="lwSyepDHIcWOVSIZ785A-3" value="&lt;font style=&quot;font-size: 21px&quot;&gt;&lt;b&gt;Find a database of tree leaf photos&lt;/b&gt;&lt;/font&gt;" style="rounded=0;whiteSpace=wrap;html=1;strokeWidth=6;" vertex="1" parent="1">
          <mxGeometry x="1290" y="490" width="281" height="150" as="geometry" />
        </mxCell>
        <mxCell id="lwSyepDHIcWOVSIZ785A-2" value="&lt;div&gt;&lt;b&gt;&lt;font style=&quot;font-size: 21px&quot;&gt;Goal: Identify tree species based on photos of leaves&lt;/font&gt;&lt;/b&gt;&lt;/div&gt;" style="ellipse;whiteSpace=wrap;html=1;fillColor=#ffe6cc;strokeColor=#d79b00;strokeWidth=6;" vertex="1" parent="1">
          <mxGeometry x="1650" y="360" width="230" height="180" as="geometry" />
        </mxCell>
        <mxCell id="lwSyepDHIcWOVSIZ785A-7" value="&lt;font size=&quot;1&quot;&gt;&lt;b style=&quot;font-size: 21px&quot;&gt;Import the data in a readable format for Python/Tensorflow&lt;/b&gt;&lt;/font&gt;" style="rounded=0;whiteSpace=wrap;html=1;strokeWidth=6;" vertex="1" parent="1">
          <mxGeometry x="1365" y="760" width="280" height="150" as="geometry" />
        </mxCell>
        <mxCell id="lwSyepDHIcWOVSIZ785A-8" value="&lt;font size=&quot;1&quot;&gt;&lt;b style=&quot;font-size: 21px&quot;&gt;Design and implement a neural network to categorise photographs&lt;/b&gt;&lt;/font&gt;" style="rounded=0;whiteSpace=wrap;html=1;strokeWidth=6;" vertex="1" parent="1">
          <mxGeometry x="1740" y="760" width="340" height="150" as="geometry" />
        </mxCell>
        <mxCell id="lwSyepDHIcWOVSIZ785A-10" value="&lt;b&gt;&lt;font style=&quot;font-size: 21px&quot;&gt;Possibly do some image processing on the photographs to standardise them prior to categorisation&lt;/font&gt;&lt;/b&gt;" style="rounded=0;whiteSpace=wrap;html=1;strokeWidth=6;" vertex="1" parent="1">
          <mxGeometry x="1740" y="570" width="340" height="150" as="geometry" />
        </mxCell>
        <mxCell id="lwSyepDHIcWOVSIZ785A-11" value="&lt;b&gt;&lt;font style=&quot;font-size: 21px&quot;&gt;Found and downloaded a dataset from kaggle&lt;br&gt;&lt;/font&gt;&lt;/b&gt;" style="rounded=1;whiteSpace=wrap;html=1;strokeWidth=6;" vertex="1" parent="1">
          <mxGeometry x="1010" y="440" width="210" height="90" as="geometry" />
        </mxCell>
        <mxCell id="lwSyepDHIcWOVSIZ785A-12" value="" style="endArrow=classic;html=1;entryX=1;entryY=0.25;entryDx=0;entryDy=0;" edge="1" parent="1" source="lwSyepDHIcWOVSIZ785A-2" target="lwSyepDHIcWOVSIZ785A-3">
          <mxGeometry width="50" height="50" relative="1" as="geometry">
            <mxPoint x="1250" y="750" as="sourcePoint" />
            <mxPoint x="1300" y="700" as="targetPoint" />
          </mxGeometry>
        </mxCell>
        <mxCell id="lwSyepDHIcWOVSIZ785A-13" value="" style="endArrow=classic;html=1;entryX=1;entryY=0.25;entryDx=0;entryDy=0;" edge="1" parent="1" source="lwSyepDHIcWOVSIZ785A-3">
          <mxGeometry width="50" height="50" relative="1" as="geometry">
            <mxPoint x="1311.4362610018493" y="459.99828815906" as="sourcePoint" />
            <mxPoint x="1220" y="496.79" as="targetPoint" />
          </mxGeometry>
        </mxCell>
      </root>
    </mxGraphModel>
  </diagram>
</mxfile>
